<?xml version="1.0" standalone="no"?>
<!DOCTYPE svg PUBLIC "-//W3C//DTD SVG 20010904//EN"
 "http://www.w3.org/TR/2001/REC-SVG-20010904/DTD/svg10.dtd">
<svg version="1.0" xmlns="http://www.w3.org/2000/svg"
 width="644.000000pt" height="644.000000pt" viewBox="0 0 644.000000 644.000000"
 preserveAspectRatio="xMidYMid meet">

<g transform="translate(0.000000,644.000000) scale(0.100000,-0.100000)"
fill="#000000" stroke="none">
<path d="M0 3220 l0 -3220 3220 0 3220 0 0 3220 0 3220 -3220 0 -3220 0 0
-3220z m3340 3019 c261 -27 556 -135 784 -286 132 -88 313 -266 391 -385 97
-150 128 -231 175 -453 33 -156 60 -230 106 -291 29 -38 145 -131 254 -204
145 -98 189 -160 190 -264 0 -53 -8 -76 -77 -225 -72 -154 -78 -171 -78 -231
0 -55 4 -72 28 -106 37 -54 43 -99 23 -167 l-16 -55 30 -64 c35 -74 36 -92 11
-174 -23 -73 -21 -88 40 -234 38 -91 43 -115 44 -180 0 -60 -5 -84 -23 -120
-49 -93 -100 -131 -277 -205 -322 -134 -501 -297 -636 -579 -26 -55 -60 -144
-73 -196 -24 -90 -56 -313 -56 -391 0 -32 -6 -41 -52 -76 -112 -83 -236 -147
-370 -192 l-68 -23 0 -44 c0 -50 -21 -98 -46 -108 -26 -10 -57 27 -63 76 -5
36 -10 43 -26 40 -78 -11 -462 -13 -538 -3 -218 29 -412 104 -519 201 l-58 52
0 268 0 269 -91 48 c-101 53 -151 100 -142 133 10 40 80 82 386 235 321 160
384 199 442 269 48 58 65 105 65 175 0 84 -48 173 -230 421 -161 220 -219 319
-244 416 -47 183 8 337 181 505 134 130 351 257 713 414 381 166 515 254 614
404 153 230 167 526 38 776 -53 102 -191 237 -297 292 -206 106 -403 120 -605
42 -93 -36 -166 -84 -249 -163 -186 -179 -263 -416 -216 -664 18 -95 61 -202
106 -269 45 -66 145 -169 199 -206 100 -67 123 -107 75 -129 -44 -20 -125 30
-245 151 -115 117 -155 176 -209 314 l-36 92 0 180 c0 171 2 184 28 260 80
228 263 423 490 519 87 37 89 56 5 56 -136 0 -437 -21 -513 -36 -197 -38 -488
-161 -670 -282 -168 -112 -387 -333 -500 -502 -116 -173 -217 -400 -270 -607
-59 -228 -58 -695 3 -933 63 -245 162 -458 417 -895 263 -450 348 -626 425
-876 74 -242 108 -443 135 -804 9 -123 22 -230 31 -258 11 -32 36 -69 73 -109
l56 -60 100 26 c202 51 373 67 720 67 424 1 705 -33 796 -94 80 -54 33 -124
-115 -171 -177 -56 -367 -76 -720 -76 -367 0 -502 19 -697 96 l-93 37 -34 -19
c-48 -26 -72 -60 -72 -104 0 -31 6 -44 32 -66 60 -50 176 -92 378 -136 99 -21
126 -23 500 -23 277 0 417 4 470 13 190 33 354 87 445 147 81 54 141 42 120
-24 -14 -45 -170 -126 -327 -170 -454 -127 -1256 -94 -1570 65 -96 48 -158
127 -158 199 0 43 32 104 74 144 20 19 36 39 36 44 0 4 -18 29 -39 55 -77 91
-91 146 -116 462 -51 641 -143 912 -536 1577 -224 379 -329 589 -394 787 -135
413 -127 928 21 1323 237 635 744 1087 1398 1248 185 45 275 55 456 49 91 -3
208 -10 260 -15z m-750 -334 c20 -25 4 -46 -119 -152 -221 -189 -362 -407
-433 -665 -21 -77 -23 -103 -23 -348 0 -297 6 -336 76 -556 74 -231 188 -474
321 -684 l72 -115 18 -130 c30 -215 87 -667 90 -715 3 -38 0 -46 -23 -59 -25
-14 -34 -8 -360 198 -378 241 -439 284 -439 310 0 29 24 42 123 65 l92 21 24
50 c12 28 28 53 35 57 6 4 44 8 84 8 68 0 73 2 82 24 18 49 78 57 100 15 8
-15 6 -31 -10 -66 -26 -58 -32 -63 -95 -63 -79 0 -94 -8 -120 -60 -17 -34 -33
-51 -55 -58 -57 -20 -47 -30 167 -174 174 -116 179 -117 227 -73 35 32 34 56
-9 370 l-35 254 -69 106 c-265 407 -412 863 -412 1281 -1 297 66 533 214 754
71 107 153 204 241 288 125 119 203 157 236 117z m1020 5 c12 -7 16 -44 19
-196 2 -102 0 -233 -4 -289 l-7 -103 -135 -87 c-141 -91 -189 -109 -212 -81
-25 30 3 62 134 148 l125 82 0 237 c0 281 2 299 39 299 14 0 33 -5 41 -10z
m-1685 -362 c38 -17 29 -46 -56 -175 -217 -330 -302 -658 -269 -1050 22 -275
126 -572 304 -872 82 -138 89 -156 76 -182 -17 -32 -55 -23 -92 21 -81 94
-249 430 -314 627 -67 205 -78 280 -79 553 0 278 6 323 79 545 50 150 90 233
175 363 51 78 135 182 147 182 2 0 15 -5 29 -12z m577 -135 c10 -9 18 -21 18
-27 0 -6 -27 -65 -60 -131 -141 -284 -157 -583 -50 -918 17 -54 35 -97 40 -97
5 0 62 50 126 110 64 61 121 110 125 110 18 0 8 20 -37 72 -96 112 -185 266
-199 350 -6 29 -3 40 14 57 33 33 54 13 115 -112 35 -71 80 -142 123 -195 125
-154 137 -173 126 -191 -5 -9 -36 -34 -67 -55 -72 -50 -212 -187 -254 -248
-43 -63 -63 -73 -95 -48 -58 46 -142 256 -173 434 -20 111 -22 322 -5 430 31
190 162 476 219 476 8 0 24 -7 34 -17z"/>
<path d="M4310 5654 c0 -6 10 -37 21 -70 30 -83 39 -359 15 -453 -53 -208
-173 -376 -351 -496 -76 -51 -330 -178 -490 -245 -538 -225 -785 -446 -785
-700 0 -116 49 -211 244 -475 200 -271 254 -383 244 -509 -10 -119 -70 -206
-203 -295 -71 -47 -99 -62 -477 -245 -109 -52 -198 -99 -198 -104 0 -12 629
-309 719 -339 107 -36 147 -30 315 49 75 35 136 68 136 74 0 19 -246 124 -350
150 -127 32 -142 39 -138 67 5 35 61 57 145 57 83 0 113 -9 160 -50 36 -32
286 -160 312 -160 26 0 312 143 308 155 -2 5 -77 49 -168 96 -296 156 -320
170 -317 192 5 34 31 42 80 27 23 -8 149 -67 278 -131 252 -125 266 -136 253
-199 -8 -42 -42 -66 -221 -155 l-152 -76 0 -285 0 -284 23 0 c28 0 266 116
323 158 l41 30 6 106 c12 188 63 378 148 551 61 124 123 207 231 311 134 129
248 199 485 298 118 50 175 96 189 152 13 52 -4 139 -48 249 -61 149 -63 162
-32 251 28 82 27 89 -30 143 -20 19 -36 40 -36 47 0 7 11 36 25 66 33 70 31
96 -7 158 -36 59 -47 135 -28 196 7 22 43 105 82 186 82 174 92 225 56 278
-13 19 -90 83 -172 141 -81 59 -170 129 -197 155 -65 64 -112 159 -139 281
-59 268 -101 382 -184 507 -62 92 -115 156 -116 140z m240 -963 c53 -28 80
-74 80 -137 0 -42 -5 -59 -27 -85 -53 -63 -127 -75 -211 -33 l-51 25 -108 -46
c-308 -133 -532 -288 -578 -400 -21 -48 -18 -122 5 -172 13 -29 101 -127 273
-300 139 -142 272 -286 296 -321 52 -77 98 -173 117 -244 18 -69 18 -196 -1
-278 -28 -117 -160 -358 -216 -393 -9 -5 -28 -7 -42 -3 -41 10 -34 47 27 145
112 176 152 333 124 479 -33 166 -106 272 -364 527 -214 211 -265 269 -307
350 -41 78 -44 175 -10 245 69 140 277 292 593 435 151 68 152 68 182 122 54
96 136 128 218 84z m-78 -415 c29 -19 68 -90 68 -122 -1 -40 -38 -101 -76
-124 -57 -36 -121 -33 -179 8 l-46 32 -40 -21 c-63 -32 -161 -93 -229 -143
-34 -25 -67 -46 -73 -46 -17 0 -47 32 -47 50 0 33 126 132 242 191 67 34 138
83 138 95 0 22 66 86 103 98 45 15 100 8 139 -18z m-1080 -113 c10 -9 18 -22
18 -28 0 -11 -169 -166 -220 -202 -27 -19 -58 -8 -66 22 -4 18 2 35 25 64 53
67 176 161 210 161 8 0 23 -7 33 -17z m-271 -384 c11 -5 31 -34 44 -64 13 -30
37 -74 53 -97 16 -24 37 -58 47 -77 16 -32 16 -34 -3 -54 -18 -18 -24 -19 -51
-7 -36 14 -90 84 -126 161 -29 63 -32 105 -8 131 19 21 19 21 44 7z m394 -481
c94 -95 121 -138 105 -168 -6 -11 -19 -20 -29 -20 -41 0 -231 189 -231 229 0
24 20 41 48 41 17 0 49 -24 107 -82z m232 -326 c15 -10 33 -97 33 -161 0 -107
-26 -161 -75 -161 -38 0 -47 29 -34 105 8 50 8 81 -1 130 -10 52 -10 68 0 80
13 16 57 20 77 7z"/>
<path d="M4446 4594 c-23 -22 -20 -60 6 -78 12 -9 26 -16 30 -16 15 0 48 40
48 59 0 25 -26 51 -50 51 -10 0 -26 -7 -34 -16z"/>
<path d="M4343 4184 c-15 -24 -15 -29 -2 -53 18 -32 45 -38 70 -15 25 23 24
59 -3 78 -31 22 -45 20 -65 -10z"/>
<path d="M2552 1624 c6 -265 7 -268 115 -322 93 -47 181 -75 306 -99 117 -21
429 -24 535 -5 l72 14 0 279 0 279 -120 -60 c-167 -84 -259 -113 -335 -108
-68 5 -128 28 -367 139 -92 42 -177 80 -189 84 l-22 7 5 -208z"/>
<path d="M2845 785 c-325 -39 -358 -59 -165 -100 310 -65 807 -58 1149 17 46
10 73 29 59 43 -2 3 -74 14 -159 26 -205 27 -703 35 -884 14z"/>
</g>
</svg>
