<svg version="1.1" id="Layer_1" xmlns="http://www.w3.org/2000/svg" xmlns:xlink="http://www.w3.org/1999/xlink" x="0px" y="0px"
	 width="100%" viewBox="0 0 624 736" enable-background="new 0 0 624 736" xml:space="preserve" stroke="black">
<path fill="#000000" opacity="1.000000" stroke-witdh="10"
	d="
M572.854248,411.932434 
	C583.779175,385.180481 590.356445,357.798645 591.739929,329.289581 
	C596.438782,232.464478 559.690125,154.711716 482.755341,96.308334 
	C448.360535,70.198250 409.011627,54.678284 366.199249,48.302643 
	C354.184418,46.513390 342.134491,45.050674 329.945129,45.292671 
	C327.774445,45.335766 325.551239,45.328197 323.642334,44.116848 
	C321.094910,42.500317 320.169373,40.053459 320.951752,37.195004 
	C321.816895,34.034309 324.218903,32.816444 327.375946,32.695671 
	C335.892181,32.369884 344.373383,33.099411 352.810242,33.942207 
	C388.797089,37.537113 423.002625,47.408333 455.084076,64.171005 
	C500.263611,87.777451 536.342529,121.319145 563.317810,164.567886 
	C583.313477,196.626389 596.194336,231.452621 601.968994,268.726410 
	C606.084106,295.288605 606.416565,321.965485 602.627869,348.746155 
	C599.391663,371.621704 593.555664,393.675446 585.210388,415.141235 
	C584.615967,416.670258 583.703125,418.137634 584.138733,419.798035 
	C587.331604,421.387451 590.631775,422.641296 593.515076,424.531219 
	C608.027161,434.043610 611.941345,452.974487 601.957825,468.094543 
	C574.144897,510.217499 546.024292,552.137329 518.051208,594.154785 
	C516.435181,596.582153 514.285645,598.328003 511.892029,599.890381 
	C472.277435,625.747375 432.718628,651.690308 393.047394,677.460022 
	C369.482117,692.767700 344.349121,695.611633 317.684570,686.602844 
	C273.868011,671.798950 230.013550,657.088013 185.083527,645.910522 
	C171.858643,642.620483 158.616821,639.575134 144.844254,639.225281 
	C123.660210,638.687256 105.886375,646.508423 90.412468,660.359619 
	C79.432991,670.187683 70.030624,681.405090 61.772545,693.596252 
	C60.559341,695.387207 59.312515,697.164856 57.953693,698.845581 
	C55.999496,701.262573 53.339134,702.315735 50.396664,701.372925 
	C47.185032,700.343933 46.414330,697.508423 46.705204,694.487793 
	C47.994957,681.094604 49.077141,667.671814 50.786854,654.330566 
	C53.878304,630.207397 58.758572,606.477295 67.544151,583.673645 
	C79.078560,553.735291 96.419304,527.467712 117.919266,503.852417 
	C120.121681,501.433289 120.428169,499.946503 118.035019,497.753815 
	C116.293777,496.158447 114.893440,494.157227 115.120827,491.640259 
	C115.345848,489.149475 116.723122,487.274506 119.094162,486.309326 
	C122.028572,485.114746 124.569572,486.334106 126.215584,488.492981 
	C129.106186,492.284119 131.516327,491.494415 134.862305,488.992004 
	C159.871429,470.288239 188.187073,461.450836 219.293488,461.773682 
	C234.534637,461.931854 249.333786,465.079163 263.719391,470.189941 
	C290.877289,479.838379 318.909058,484.985260 347.672943,486.409088 
	C350.214203,486.534912 351.704071,485.363922 353.372162,483.981323 
	C380.309296,461.654358 407.203827,439.275513 434.221802,417.046783 
	C446.820404,406.681488 462.666473,407.309723 473.568817,418.205170 
	C477.189911,421.823944 479.133942,426.383118 480.814087,431.063354 
	C483.218781,431.094421 484.126892,429.258759 485.352112,428.051636 
	C491.048889,422.438965 496.792816,416.863861 502.269287,411.039703 
	C520.733276,391.403656 551.483826,401.783813 555.907837,423.014648 
	C556.064209,423.764954 556.551208,424.446350 557.037231,425.488007 
	C562.919189,421.501770 571.441711,421.322052 572.854248,411.932434 
M74.938286,598.317078 
	C67.278358,621.805908 63.037498,645.897827 61.742733,670.622314 
	C67.748741,664.655579 73.168709,658.591125 79.098846,653.012634 
	C95.423164,637.656189 114.152267,628.000488 137.105377,627.552185 
	C152.885849,627.243958 168.319214,629.556152 183.481583,633.348938 
	C229.197968,644.784729 274.013733,659.260254 318.502319,674.709229 
	C342.667480,683.100769 365.099213,680.930542 386.589844,666.804626 
	C425.292328,641.365173 464.184753,616.214661 503.011536,590.964600 
	C504.846649,589.771179 506.505157,588.498047 507.749084,586.629517 
	C535.723145,544.610107 563.770569,502.639404 591.689514,460.583435 
	C597.428772,451.938049 595.520935,440.896912 587.749817,435.061279 
	C579.645508,428.975494 569.235657,430.072052 562.139404,437.886139 
	C557.324280,443.188385 552.669678,448.636047 547.919128,453.997284 
	C522.840881,482.299469 497.565399,510.430023 472.756927,538.966614 
	C461.462524,551.958252 449.652222,563.581604 432.752930,569.285095 
	C381.635834,586.537048 329.473053,594.819214 275.584717,588.153381 
	C261.023621,586.352173 246.857986,582.444153 234.324478,574.143066 
	C230.931580,571.895874 229.250641,568.991028 231.237213,565.301147 
	C233.262482,561.539429 236.673050,561.264526 240.226868,563.384888 
	C259.212067,574.712158 280.296143,577.060120 301.747223,577.671387 
	C331.354431,578.515076 360.528229,574.797546 389.384735,568.546692 
	C406.951904,564.741516 424.452484,560.455017 440.564575,552.103027 
	C453.880493,545.200500 458.065521,530.942749 452.398712,512.905762 
	C448.153839,499.394653 440.074249,494.729370 424.614777,496.462341 
	C400.612213,499.152863 376.569916,500.330719 352.376892,499.490784 
	C319.864807,498.362061 288.233673,493.074249 257.643616,481.903900 
	C239.288971,475.201477 220.230545,473.220947 201.069794,475.662628 
	C168.562820,479.805023 141.388931,494.473938 120.147141,519.730957 
	C100.554291,543.027283 84.842857,568.542053 74.938286,598.317078 
M529.225403,457.723724 
	C532.749756,453.725891 536.365784,449.804504 539.778076,445.713196 
	C545.600342,438.732391 546.196106,428.887665 541.367615,422.054260 
	C533.923645,411.519348 520.398926,410.627289 510.683075,420.426361 
	C490.982544,440.295715 471.470825,460.352509 451.934021,480.383453 
	C450.377655,481.979156 448.494690,483.466003 447.758453,486.038300 
	C461.260162,495.462921 466.494446,509.324005 468.646332,525.826477 
	C489.188721,502.726044 508.964386,480.487793 529.225403,457.723724 
M464.715179,428.887787 
	C456.710907,420.733429 449.005310,420.835602 438.781525,429.242950 
	C418.336914,446.055298 397.888672,462.863251 377.461487,479.696777 
	C375.004211,481.721771 372.668030,483.893738 369.581421,486.608093 
	C387.739685,487.371857 404.616486,485.705627 421.479492,484.046417 
	C425.426788,483.658051 429.550568,484.359741 433.016541,480.700623 
	C442.632874,470.548279 452.738831,460.861328 462.576019,450.916016 
	C468.624512,444.800995 469.473175,437.172913 464.715179,428.887787 
z"/>
<path fill="#000000" opacity="1.000000" stroke-witdh="10"
	d="
M226.658936,296.999939 
	C226.659729,259.508362 226.635117,222.516800 226.670456,185.525314 
	C226.696381,158.375015 245.365829,139.787903 272.601196,139.767365 
	C308.926208,139.739990 345.251434,139.682846 381.576202,139.776932 
	C404.074585,139.835220 421.256897,153.825668 425.801849,175.594910 
	C426.305969,178.009399 426.321503,180.555740 426.322510,183.041046 
	C426.349396,249.359192 426.362701,315.677338 426.335541,381.995514 
	C426.325867,405.663757 407.402130,425.018097 383.592743,425.157318 
	C345.602814,425.379517 307.609528,425.361877 269.619568,425.130127 
	C245.870026,424.985291 226.854813,405.745636 226.710648,381.979401 
	C226.539810,353.820496 226.663315,325.659851 226.658936,296.999939 
M300.146790,317.842102 
	C301.142944,317.316406 302.400665,317.152069 302.874664,315.904877 
	C288.791595,296.613800 288.814880,277.837128 302.920074,264.877289 
	C315.953278,252.902390 336.075928,252.385849 349.043304,263.693329 
	C364.398315,277.082794 364.810669,295.234161 350.136566,316.229675 
	C350.676758,316.584412 351.177399,317.011658 351.752808,317.276733 
	C371.887421,326.553009 384.385529,342.037476 389.222656,363.632324 
	C389.855469,366.457458 391.455597,367.021393 393.829498,367.017212 
	C398.495789,367.008972 403.181580,366.746948 407.823059,367.085999 
	C412.791107,367.448883 413.971802,365.318848 413.962494,360.678375 
	C413.852448,305.682770 413.855743,250.686661 414.031158,195.691330 
	C414.047211,190.655975 412.603363,189.191666 407.528809,189.207809 
	C353.533447,189.379639 299.537048,189.380020 245.541748,189.198700 
	C240.438431,189.181580 239.098465,190.627960 239.120438,195.674500 
	C239.311157,239.503677 239.225891,283.334045 239.225189,327.164062 
	C239.225006,338.663177 239.372299,350.164764 239.164948,361.660065 
	C239.089188,365.860870 240.656189,367.296448 244.717422,367.071899 
	C249.203659,366.823822 253.716827,366.899780 258.212280,367.034271 
	C261.505432,367.132843 263.174072,366.178986 264.000153,362.547241 
	C268.654510,342.085114 280.689728,327.352814 300.146790,317.842102 
M267.500092,379.365448 
	C259.672333,379.361938 251.840454,379.506866 244.018555,379.290894 
	C240.233185,379.186371 239.164200,380.606903 239.254166,384.268372 
	C239.616394,399.009552 253.417450,412.489746 269.445404,412.586945 
	C307.583679,412.818298 345.725403,412.827179 383.863403,412.573303 
	C399.276337,412.470673 412.555847,400.231659 413.680481,386.120941 
	C414.194397,379.673370 413.936829,379.369598 407.402069,379.368530 
	C361.101410,379.361145 314.800781,379.365479 267.500092,379.365448 
M298.500061,152.315170 
	C294.335388,152.314255 290.166931,152.198578 286.006897,152.337189 
	C278.206543,152.597107 270.346680,151.458130 262.611847,153.324951 
	C251.192719,156.080994 241.264252,166.371826 240.922531,175.923050 
	C241.991714,176.915009 243.377792,176.676392 244.670456,176.676651 
	C299.144379,176.687881 353.618286,176.693161 408.092194,176.666168 
	C412.969604,176.663742 413.538818,175.820419 411.576355,171.414001 
	C405.975891,158.839096 396.002747,152.505875 382.459808,152.390976 
	C354.808350,152.156418 327.153534,152.317856 298.500061,152.315170 
M283.577209,348.074615 
	C280.746063,352.431519 278.672821,357.120209 277.021271,362.052460 
	C275.841827,365.574799 276.723267,367.043488 280.480621,367.038513 
	C311.145691,366.998077 341.810913,366.991791 372.475983,367.029694 
	C376.241394,367.034363 377.053131,365.611786 375.925293,362.068420 
	C370.845825,346.109833 360.526611,334.794800 345.085144,328.807434 
	C322.203735,319.935242 299.598938,327.145721 283.577209,348.074615 
M305.340729,296.054840 
	C309.611511,309.361816 321.956848,314.782867 334.308868,310.657074 
	C345.419617,306.945862 351.194397,294.552795 347.575592,283.524872 
	C343.846954,272.162323 331.887146,265.630920 320.547729,268.764740 
	C309.174011,271.907990 302.365570,283.675690 305.340729,296.054840 
z"/>
<path fill="#000000" opacity="1.000000" stroke-witdh="10"
	d="
M71.546066,227.787231 
	C72.212898,229.461319 72.002815,230.735474 71.642883,232.058746 
	C69.810501,238.795532 68.031059,245.546692 66.230942,252.292267 
	C65.190872,256.189697 62.760860,258.526703 58.635391,257.806885 
	C54.362392,257.061340 53.052055,253.824188 53.732162,249.900223 
	C55.040112,242.353851 57.147762,234.996643 59.629795,227.756531 
	C60.513725,225.178101 62.407639,223.690384 65.218178,223.467087 
	C68.300652,223.222153 70.312363,224.587051 71.546066,227.787231 
z"/>
<path fill="#000000" opacity="1.000000" stroke-witdh="10"
	d="
M51.803043,270.830322 
	C58.001453,267.165955 62.508804,269.463776 62.227890,276.118225 
	C61.907211,283.714722 61.050171,291.297699 60.175507,298.857544 
	C59.780151,302.274658 57.328056,304.234558 53.967258,304.094910 
	C50.334808,303.944000 47.963913,301.467621 47.990135,297.956848 
	C48.033257,292.183289 48.554913,286.389526 49.272434,280.654022 
	C49.674015,277.444000 49.194458,273.921234 51.803043,270.830322 
z"/>
<path fill="#000000" opacity="1.000000" stroke-witdh="10"
	d="
M163.263000,85.233047 
	C166.564911,82.947113 169.495926,80.735031 172.629303,78.861320 
	C176.036102,76.824097 179.469070,76.916229 181.832947,80.478088 
	C184.148682,83.967384 182.506073,86.928764 179.586319,89.109703 
	C173.726990,93.486382 167.766373,97.731354 161.766449,101.914330 
	C158.501724,104.190392 155.347656,103.653748 153.018951,100.491043 
	C150.790390,97.464340 151.401810,94.458076 154.254654,92.107513 
	C157.075409,89.783386 160.065475,87.664734 163.263000,85.233047 
z"/>
<path fill="#000000" opacity="1.000000" stroke-witdh="10"
	d="
M221.941711,57.036400 
	C224.715561,62.692001 223.979065,65.058197 218.759979,67.669365 
	C212.972275,70.565018 207.149612,73.393784 201.295792,76.153259 
	C196.620987,78.356934 193.120239,77.545143 191.397659,74.039330 
	C189.640533,70.463211 190.990051,67.487900 195.815018,64.998535 
	C201.419678,62.106903 207.106110,59.371502 212.789246,56.635139 
	C215.738022,55.215343 218.748322,54.430920 221.941711,57.036400 
z"/>
<path fill="#000000" opacity="1.000000" stroke-witdh="10"
	d="
M103.996674,459.023254 
	C106.467766,462.612030 108.825325,465.846191 110.979065,469.210785 
	C113.038689,472.428406 112.987488,475.632782 109.739777,478.057129 
	C106.377129,480.567291 103.262100,479.408569 101.094719,476.341797 
	C96.580658,469.954559 92.263550,463.422882 88.032394,456.843231 
	C85.966805,453.631165 86.902390,450.605133 89.943077,448.612152 
	C92.831093,446.719238 95.854607,447.337494 97.968895,450.010071 
	C100.129898,452.741791 101.869789,455.806671 103.996674,459.023254 
z"/>
<path fill="#000000" opacity="1.000000" stroke-witdh="10"
	d="
M95.234436,155.306702 
	C98.053909,151.360748 100.592575,147.656708 103.298576,144.079239 
	C105.750053,140.838272 108.998627,139.748383 112.380264,142.356979 
	C115.494865,144.759567 115.481194,148.108078 113.365372,151.256775 
	C109.379860,157.187866 105.341774,163.088394 101.146851,168.871994 
	C98.988983,171.847092 95.993324,173.334976 92.509750,171.082153 
	C89.117035,168.888062 88.932793,165.656799 90.747040,162.332138 
	C92.017410,160.004150 93.589287,157.840683 95.234436,155.306702 
z"/>
<path fill="#000000" opacity="1.000000" stroke-witdh="10"
	d="
M75.697411,435.174988 
	C72.734070,428.615448 69.785950,422.453796 67.115120,416.174225 
	C65.108826,411.457031 66.258514,407.810150 69.990364,406.546265 
	C74.482666,405.024811 76.814621,407.700653 78.471252,411.358612 
	C81.218987,417.425842 84.048599,423.458649 86.652588,429.587189 
	C88.122536,433.046783 88.399666,436.796417 84.516022,438.767303 
	C80.904526,440.600006 77.697609,439.368530 75.697411,435.174988 
z"/>
<path fill="#000000" opacity="1.000000" stroke-witdh="10"
	d="
M62.174648,362.518494 
	C62.678566,362.781372 62.878479,362.832794 62.954842,362.958954 
	C68.384338,371.931519 69.724670,382.082886 71.024620,392.170441 
	C71.293831,394.259583 69.164330,395.982086 66.688019,396.257965 
	C63.801041,396.579590 61.014877,395.897644 59.998501,393.068207 
	C57.082516,384.950562 54.364254,376.700012 53.765499,368.040283 
	C53.439453,363.324768 56.394230,361.532990 62.174648,362.518494 
z"/>
<path fill="#000000" opacity="1.000000" stroke-witdh="10"
	d="
M73.811005,192.927643 
	C75.358093,189.759552 76.671211,186.890457 78.155853,184.113068 
	C79.964203,180.730087 82.779076,179.184723 86.425407,180.908646 
	C90.003227,182.600189 90.910278,185.639816 89.274513,189.247101 
	C86.192688,196.043304 83.099960,202.836700 79.861633,209.558945 
	C78.162254,213.086594 75.108368,214.363571 71.577194,212.693741 
	C68.269882,211.129761 67.375046,208.094543 68.733093,204.684860 
	C70.265930,200.836319 72.004158,197.069595 73.811005,192.927643 
z"/>
<path fill="#000000" opacity="1.000000" stroke-witdh="10"
	d="
M58.127865,350.078735 
	C52.270267,351.026581 50.182133,349.936554 49.307312,344.671936 
	C48.006210,336.841980 47.283176,328.918213 47.676086,320.951904 
	C47.852722,317.370636 50.084709,315.427643 53.426334,315.306458 
	C56.558842,315.192841 58.923351,316.933105 59.260281,320.238953 
	C60.064487,328.129547 60.681019,336.039948 61.310493,343.947327 
	C61.507500,346.422089 60.646915,348.505554 58.127865,350.078735 
z"/>
<path fill="#000000" opacity="1.000000" stroke-witdh="10"
	d="
M123.949455,135.072571 
	C117.007202,132.533981 115.813896,128.342636 120.418404,123.473404 
	C124.988602,118.640457 129.651382,113.888725 134.419312,109.251259 
	C137.694504,106.065681 141.652084,105.876801 144.136383,108.455780 
	C146.808517,111.229759 146.421005,114.606171 142.989288,118.117722 
	C138.341034,122.874123 133.671021,127.609222 129.016586,132.359589 
	C127.706169,133.697021 126.206589,134.690720 123.949455,135.072571 
z"/>
<path fill="#000000" opacity="1.000000" stroke-witdh="10"
	d="
M247.746033,43.722393 
	C252.587753,42.698448 255.953125,44.155235 256.814270,48.753975 
	C257.613953,53.024399 254.484573,54.998455 250.924225,56.150818 
	C247.606491,57.224655 244.287201,58.432018 240.872192,59.030056 
	C237.049545,59.699474 233.742035,58.417019 232.858795,54.187672 
	C232.041138,50.272392 234.150421,47.886436 237.838593,46.756359 
	C241.017990,45.782173 244.189713,44.782940 247.746033,43.722393 
z"/>
<path fill="#000000" opacity="1.000000" stroke-witdh="10"
	d="
M324.017151,156.803070 
	C329.665527,156.816101 334.819977,156.733215 339.968628,156.868607 
	C345.455231,157.012894 348.411560,159.452332 348.249084,163.416824 
	C348.093750,167.206726 345.285736,169.270081 340.015808,169.296829 
	C331.374054,169.340714 322.731873,169.293640 314.089935,169.312225 
	C310.172638,169.320663 307.137939,168.120270 306.681885,163.703735 
	C306.278931,159.801376 308.759125,157.311279 313.554077,156.949478 
	C316.861115,156.699921 320.197449,156.838242 324.017151,156.803070 
z"/>
</svg>